Coordinates
version=1
nRows=10
nColumns=33
inDegrees=yes

Units are S.I. units (second, meters, Newtons, ...)
Angles are in degrees.

endheader
time	ground_thorax_rot_x	ground_thorax_rot_y	ground_thorax_rot_z	ground_thorax_tx	ground_thorax_ty	ground_thorax_tz	clav_prot_r	clav_elev_r	scapula_abduction_r	scapula_elevation_r	scapula_upward_rot_r	scapula_winging_r	shoulder_elv_r	plane_of_elev_r	axial_rot_r	elbow_flexion_r	pro_sup_r	wrist_flex_r	wrist_dev_r	clav_prot_l	clav_elev_l	scapula_abduction_l	scapula_elevation_l	scapula_upward_rot_l	scapula_winging_l	shoulder_elv_l	plane_of_elev_l	axial_rot_l	elbow_flexion_l	pro_sup_l	wrist_flex_l	wrist_dev_l
     12.34000000	     36.66867126	      9.73819412	     11.52967964	    -69.73177418	    769.27369895	     15.16825084	     10.50035756	     37.21231416	     45.00000000	     34.53063722	     -4.82113240	  -2972.53596987	  -4262.52090848	     28.26020024	     61.68120318	    728.67916858	   -331.29327860	     17.39240692	     10.81571585	      5.03394428	    -45.00000000	    -45.00000000	     45.00000000	    -23.48111063	    445.77330051	  -6773.40644176	     22.66554936	    -42.65524420	   -712.12667612	   -334.14984569	      8.53155212	    -19.02755833
     12.35000000	     36.73751234	      9.56062074	     11.18119267	    -70.24328474	    769.32179968	     15.21363137	     10.05714507	     37.19561456	     45.00000000	     34.51880390	     -4.51330817	  -2972.62222139	  -4262.45235349	     28.35537787	     61.42024817	    728.70532949	   -331.33996675	     17.35024660	     10.96230743	      4.81579988	    -45.00000000	    -45.00000000	     45.00000000	    -23.44786356	    445.62331560	  -6773.25066709	     22.73195643	    -42.92545077	   -712.04516261	   -334.24514836	      8.44162386	    -19.00050461
     12.36000000	     36.70079174	      9.63422939	     11.37752509	    -70.80747058	    769.35909081	     15.22613730	     10.21044812	     37.22742749	     45.00000000	     34.53078742	     -4.57079585	  -2972.58243515	  -4262.44004613	     28.24253705	     61.52972899	    728.68139141	   -331.32601076	     17.45028345	     10.88013312	      4.88342174	    -45.00000000	    -45.00000000	     45.00000000	    -23.08431876	    445.91583312	  -6773.47967539	     22.58060184	    -42.77911872	   -712.14050124	   -334.34294127	      8.48613717	    -19.00762359
     12.37000000	     36.79006033	      9.53950819	     11.15117162	    -71.42361952	    769.38972958	     15.20681990	     10.13760435	     37.23565521	     45.00000000	     34.57786709	     -4.50381503	  -2972.72748421	  -4262.42206705	     28.41809364	     61.39269142	    728.72360224	   -331.31735256	     17.35245164	     10.91726138	      4.79638258	    -45.00000000	    -45.00000000	     45.00000000	    -23.50409637	    445.74232841	  -6773.20946718	     22.70760446	    -43.07224332	   -711.97696558	   -334.39408763	      8.49138610	    -19.04318013
     12.38000000	     36.70948755	      9.67210396	     11.46945201	    -72.08966738	    769.41660260	     15.15710038	     10.13092644	     37.32385244	     45.00000000	     34.60039566	     -4.68202738	  -2972.61449273	  -4262.35211627	     28.24238524	     61.48113034	    728.73330253	   -331.27045898	     17.53165984	     10.91877706	      4.91148839	    -45.00000000	    -45.00000000	     45.00000000	    -23.08741462	    446.14354463	  -6773.55610286	     22.52938537	    -42.73040530	   -712.17728059	   -334.48819371	      8.41516866	    -18.98419019
     12.39000000	     36.82613297	      9.56619986	     11.18390910	    -72.80705357	    769.44288812	     15.07890089	     10.21253738	     37.28190251	     45.00000000	     34.68587762	     -4.57570343	  -2972.85460294	  -4262.43767261	     28.46553941	     61.27267455	    728.75151734	   -331.24570582	     17.36539987	     10.84711952	      4.81540346	    -45.00000000	    -45.00000000	     45.00000000	    -23.68365674	    445.89177393	  -6773.10267530	     22.67634172	    -43.10694814	   -712.00084496	   -334.49941530	      8.54638375	    -19.07361500
     12.40000000	     36.70416862	      9.68997607	     11.48249398	    -73.57757796	    769.47175432	     14.97399242	     10.11028974	     37.45056519	     45.00000000	     34.71106230	     -4.92808123	  -2972.61297677	  -4262.27798224	     28.26170565	     61.45823191	    728.85809135	   -331.16317516	     17.63366880	     10.96479698	      4.96241175	    -45.00000000	    -45.00000000	     45.00000000	    -23.20613162	    446.34981283	  -6773.52423008	     22.56134762	    -42.69923628	   -712.21710713	   -334.60179170	      8.36145030	    -18.97043377
     12.41000000	     36.72874944	      9.77644260	     11.49449399	    -74.40346046	    769.50703429	     14.84400850	     10.23195976	     37.37754086	     45.00000000	     34.81927296	     -4.97826025	  -2972.76539468	  -4262.38367633	     28.30917555	     61.27052022	    728.98216996	   -331.12416398	     17.54646614	     10.87451198	      4.93665461	    -45.00000000	    -45.00000000	     45.00000000	    -23.65417190	    446.28249398	  -6773.19201798	     22.54626715	    -42.89133251	   -712.07656108	   -334.64065883	      8.44049360	    -19.03629675
     12.42000000	     36.80586221	      9.69098705	     11.28931234	    -75.28351731	    769.55278428	     14.69164353	     10.24862512	     37.53880184	     45.00000000	     34.90951262	     -5.03709630	  -2972.89609879	  -4262.40766580	     28.50782418	     61.25193338	    728.97899941	   -331.06971213	     17.61283017	     10.83068109	      4.98005000	    -45.00000000	    -45.00000000	     45.00000000	    -23.65643060	    446.42366922	  -6773.25976626	     22.73769827	    -42.92637996	   -712.09349686	   -334.68715387	      8.45507213	    -19.05104551
     12.43000000	     36.79660453	      9.82109087	     11.46792953	    -76.22340447	    769.61348153	     14.51823744	     10.24061264	     37.56365561	     45.00000000	     34.97661269	     -5.07731468	  -2972.84341859	  -4262.28530057	     28.30126096	     61.24331345	    729.10263044	   -331.01208596	     17.63227010	     10.85640512	      4.93207214	    -45.00000000	    -45.00000000	     45.00000000	    -23.70858726	    446.50146464	  -6773.17588762	     22.47895765	    -42.92000328	   -712.02557117	   -334.73982367	      8.43374255	    -19.07310759
